o Circle
v 0 0 0
v 1 0 0
v 0.9781476259231567 0.2079116851091385 0
v 0.9135454297065735 0.4067366421222687 0
v 0.80901700258255 0.5877852439880371 0
v 0.6691306233406067 0.7431448101997375 0
v 0.5 0.8660253882408142 0
v 0.30901700258255005 0.9510565400123596 0
v 0.10452846437692642 0.9945219159126282 0
v -0.10452846437692642 0.9945219159126282 0
v -0.30901700258255005 0.9510565400123596 0
v -0.5 0.8660253882408142 0
v -0.6691306233406067 0.7431448101997375 0
v -0.80901700258255 0.5877852439880371 0
v -0.9135454297065735 0.4067366421222687 0
v -0.9781476259231567 0.2079116851091385 0
v -1 1.2246468525851679e-16 0
v -0.9781476259231567 -0.2079116851091385 0
v -0.9135454297065735 -0.4067366421222687 0
v -0.80901700258255 -0.5877852439880371 0
v -0.6691306233406067 -0.7431448101997375 0
v -0.5 -0.8660253882408142 0
v -0.30901700258255005 -0.9510565400123596 0
v -0.10452846437692642 -0.9945219159126282 0
v 0.10452846437692642 -0.9945219159126282 0
v 0.30901700258255005 -0.9510565400123596 0
v 0.5 -0.8660253882408142 0
v 0.6691306233406067 -0.7431448101997375 0
v 0.80901700258255 -0.5877852439880371 0
v 0.9135454297065735 -0.4067366421222687 0
v 0.9781476259231567 -0.2079116851091385 0
v 1 -2.4492937051703357e-16 0
vt 0.5 0.5
vt 1 0.5
vt 0.9890738129615784 0.603955864906311
vt 0.9567727446556091 0.7033683061599731
vt 0.9045084714889526 0.7938926219940186
vt 0.834565281867981 0.8715724349021912
vt 0.75 0.9330127239227295
vt 0.6545084714889526 0.9755282402038574
vt 0.5522642135620117 0.9972609281539917
vt 0.4477357566356659 0.9972609281539917
vt 0.345491498708725 0.9755282402038574
vt 0.25 0.9330127239227295
vt 0.16543470323085785 0.8715724349021912
vt 0.09549150615930557 0.7938926219940186
vt 0.04322727024555206 0.7033683061599731
vt 0.010926200076937675 0.603955864906311
vt 0 0.5
vt 0.010926200076937675 0.39604416489601135
vt 0.04322727024555206 0.29663166403770447
vt 0.09549150615930557 0.20610737800598145
vt 0.16543470323085785 0.12842757999897003
vt 0.25 0.0669872984290123
vt 0.345491498708725 0.024471741169691086
vt 0.4477357566356659 0.002739052288234234
vt 0.5522642135620117 0.002739052288234234
vt 0.6545084714889526 0.024471741169691086
vt 0.75 0.0669872984290123
vt 0.834565281867981 0.12842757999897003
vt 0.9045084714889526 0.20610737800598145
vt 0.9567727446556091 0.29663166403770447
vt 0.9890738129615784 0.39604416489601135
vt 1 0.5
vn 0 0 1
vn 0 0 1
vn 0 0 1
vn 0 0 1
vn 0 0 1
vn 0 0 1
vn 0 0 1
vn 0 0 1
vn 0 0 1
vn 0 0 1
vn 0 0 1
vn 0 0 1
vn 0 0 1
vn 0 0 1
vn 0 0 1
vn 0 0 1
vn 0 0 1
vn 0 0 1
vn 0 0 1
vn 0 0 1
vn 0 0 1
vn 0 0 1
vn 0 0 1
vn 0 0 1
vn 0 0 1
vn 0 0 1
vn 0 0 1
vn 0 0 1
vn 0 0 1
vn 0 0 1
vn 0 0 1
vn 0 0 1
f 2/2/2 3/3/3 1/1/1
f 3/3/3 4/4/4 1/1/1
f 4/4/4 5/5/5 1/1/1
f 5/5/5 6/6/6 1/1/1
f 6/6/6 7/7/7 1/1/1
f 7/7/7 8/8/8 1/1/1
f 8/8/8 9/9/9 1/1/1
f 9/9/9 10/10/10 1/1/1
f 10/10/10 11/11/11 1/1/1
f 11/11/11 12/12/12 1/1/1
f 12/12/12 13/13/13 1/1/1
f 13/13/13 14/14/14 1/1/1
f 14/14/14 15/15/15 1/1/1
f 15/15/15 16/16/16 1/1/1
f 16/16/16 17/17/17 1/1/1
f 17/17/17 18/18/18 1/1/1
f 18/18/18 19/19/19 1/1/1
f 19/19/19 20/20/20 1/1/1
f 20/20/20 21/21/21 1/1/1
f 21/21/21 22/22/22 1/1/1
f 22/22/22 23/23/23 1/1/1
f 23/23/23 24/24/24 1/1/1
f 24/24/24 25/25/25 1/1/1
f 25/25/25 26/26/26 1/1/1
f 26/26/26 27/27/27 1/1/1
f 27/27/27 28/28/28 1/1/1
f 28/28/28 29/29/29 1/1/1
f 29/29/29 30/30/30 1/1/1
f 30/30/30 31/31/31 1/1/1
f 31/31/31 32/32/32 1/1/1
